<mxfile host="app.diagrams.net" modified="2020-06-24T10:09:10.480Z" agent="5.0 (X11; Linux x86_64) AppleWebKit/537.36 (KHTML, like Gecko) Chrome/83.0.4103.61 Safari/537.36" etag="8F4BQ9raQ_9fyPI7jTfN" version="13.3.2" type="github">
  <diagram id="VZ25KQVJINhPZAaNk03m" name="Page-1">
    <mxGraphModel dx="683" dy="1602" grid="1" gridSize="10" guides="1" tooltips="1" connect="1" arrows="1" fold="1" page="1" pageScale="1" pageWidth="827" pageHeight="1169" math="0" shadow="0">
      <root>
        <mxCell id="0" />
        <mxCell id="1" parent="0" />
        <mxCell id="Ph1uTD9Jx0tFGjU2Y2NS-1" value="&lt;p style=&quot;margin: 4px 0px 0px ; text-align: center ; font-size: 14px&quot;&gt;&lt;b style=&quot;font-size: 14px&quot;&gt;&lt;font style=&quot;font-size: 14px&quot;&gt;Category&lt;/font&gt;&lt;/b&gt;&lt;/p&gt;&lt;hr style=&quot;font-size: 14px&quot;&gt;&lt;p style=&quot;margin: 0px 0px 0px 4px ; font-size: 14px&quot;&gt;&lt;span style=&quot;font-size: 14px&quot;&gt;- title: string&lt;/span&gt;&lt;br style=&quot;font-size: 14px&quot;&gt;&lt;/p&gt;&lt;p style=&quot;margin: 0px 0px 0px 4px ; font-size: 14px&quot;&gt;&lt;font style=&quot;font-size: 14px&quot;&gt;- description: string&lt;br style=&quot;font-size: 14px&quot;&gt;&lt;/font&gt;&lt;/p&gt;&lt;p style=&quot;margin: 0px 0px 0px 4px ; font-size: 14px&quot;&gt;&lt;br&gt;&lt;/p&gt;" style="verticalAlign=top;align=left;overflow=fill;fontSize=14;fontFamily=Helvetica;html=1;fillColor=#f5f5f5;strokeColor=#666666;fontColor=#333333;" vertex="1" parent="1">
          <mxGeometry x="120" y="-380" width="160" height="80" as="geometry" />
        </mxCell>
        <mxCell id="Ph1uTD9Jx0tFGjU2Y2NS-2" value="&lt;p style=&quot;margin: 4px 0px 0px ; text-align: center ; font-size: 14px&quot;&gt;&lt;b style=&quot;font-size: 14px&quot;&gt;&lt;font style=&quot;font-size: 14px&quot;&gt;Adventure&lt;/font&gt;&lt;/b&gt;&lt;/p&gt;&lt;hr style=&quot;font-size: 14px&quot;&gt;&lt;p style=&quot;margin: 0px 0px 0px 4px ; font-size: 14px&quot;&gt;&lt;span style=&quot;font-size: 14px&quot;&gt;- title: string&lt;/span&gt;&lt;br style=&quot;font-size: 14px&quot;&gt;&lt;/p&gt;&lt;p style=&quot;margin: 0px 0px 0px 4px ; font-size: 14px&quot;&gt;&lt;font style=&quot;font-size: 14px&quot;&gt;- description: string&lt;br style=&quot;font-size: 14px&quot;&gt;&lt;/font&gt;&lt;/p&gt;&lt;p style=&quot;margin: 0px 0px 0px 4px ; font-size: 14px&quot;&gt;&lt;font style=&quot;font-size: 14px&quot;&gt;- location: string&lt;/font&gt;&lt;/p&gt;&lt;p style=&quot;margin: 0px 0px 0px 4px ; font-size: 14px&quot;&gt;&lt;font style=&quot;font-size: 14px&quot;&gt;- participants: Integer&lt;br style=&quot;font-size: 14px&quot;&gt;&lt;/font&gt;&lt;/p&gt;&lt;p style=&quot;margin: 0px 0px 0px 4px ; font-size: 14px&quot;&gt;&lt;font style=&quot;font-size: 14px&quot;&gt;- price: Integer&lt;/font&gt;&lt;/p&gt;" style="verticalAlign=top;align=left;overflow=fill;fontSize=14;fontFamily=Helvetica;html=1;fillColor=#f5f5f5;strokeColor=#666666;fontColor=#333333;" vertex="1" parent="1">
          <mxGeometry x="120" y="-640" width="160" height="120" as="geometry" />
        </mxCell>
        <mxCell id="Ph1uTD9Jx0tFGjU2Y2NS-3" value="" style="endArrow=none;html=1;endSize=12;startArrow=none;startSize=14;startFill=0;edgeStyle=orthogonalEdgeStyle;exitX=0.5;exitY=1;exitDx=0;exitDy=0;endFill=0;fontSize=14;" edge="1" parent="1" source="Ph1uTD9Jx0tFGjU2Y2NS-2">
          <mxGeometry x="-0.0029" y="-20" relative="1" as="geometry">
            <mxPoint x="199.5" y="-480" as="sourcePoint" />
            <mxPoint x="200" y="-380" as="targetPoint" />
            <Array as="points" />
            <mxPoint as="offset" />
          </mxGeometry>
        </mxCell>
        <mxCell id="Ph1uTD9Jx0tFGjU2Y2NS-4" value="1..n" style="resizable=0;html=1;align=left;verticalAlign=top;labelBackgroundColor=#ffffff;fontSize=14;" connectable="0" vertex="1" parent="Ph1uTD9Jx0tFGjU2Y2NS-3">
          <mxGeometry x="-1" relative="1" as="geometry">
            <mxPoint x="-30" as="offset" />
          </mxGeometry>
        </mxCell>
        <mxCell id="Ph1uTD9Jx0tFGjU2Y2NS-5" value="1" style="resizable=0;html=1;align=right;verticalAlign=top;labelBackgroundColor=#ffffff;fontSize=14;" connectable="0" vertex="1" parent="Ph1uTD9Jx0tFGjU2Y2NS-3">
          <mxGeometry x="1" relative="1" as="geometry">
            <mxPoint x="-10" y="-30" as="offset" />
          </mxGeometry>
        </mxCell>
        <mxCell id="Ph1uTD9Jx0tFGjU2Y2NS-6" value="&lt;p style=&quot;margin: 4px 0px 0px ; text-align: center ; font-size: 14px&quot;&gt;&lt;b style=&quot;font-size: 14px&quot;&gt;&lt;font style=&quot;font-size: 14px&quot;&gt;Image&lt;/font&gt;&lt;/b&gt;&lt;/p&gt;&lt;hr style=&quot;font-size: 14px&quot;&gt;&lt;p style=&quot;margin: 0px 0px 0px 4px ; font-size: 14px&quot;&gt;&lt;/p&gt;&lt;span style=&quot;font-size: 14px&quot;&gt;&amp;nbsp;- description: string&lt;br style=&quot;font-size: 14px&quot;&gt;&amp;nbsp;- url: string&lt;br&gt;&lt;br&gt;&lt;br style=&quot;font-size: 14px&quot;&gt;&lt;/span&gt;" style="verticalAlign=top;align=left;overflow=fill;fontSize=14;fontFamily=Helvetica;html=1;fillColor=#f5f5f5;strokeColor=#666666;fontColor=#333333;" vertex="1" parent="1">
          <mxGeometry x="400" y="-385" width="140" height="90" as="geometry" />
        </mxCell>
        <mxCell id="Ph1uTD9Jx0tFGjU2Y2NS-7" value="" style="endArrow=none;html=1;endSize=12;startArrow=none;startSize=14;startFill=0;edgeStyle=orthogonalEdgeStyle;endFill=0;fontSize=14;entryX=1;entryY=0.5;entryDx=0;entryDy=0;" edge="1" parent="1" source="Ph1uTD9Jx0tFGjU2Y2NS-6" target="Ph1uTD9Jx0tFGjU2Y2NS-1">
          <mxGeometry x="-0.0029" y="-20" relative="1" as="geometry">
            <mxPoint x="210" y="-490" as="sourcePoint" />
            <mxPoint x="210" y="-370" as="targetPoint" />
            <Array as="points" />
            <mxPoint as="offset" />
          </mxGeometry>
        </mxCell>
        <mxCell id="Ph1uTD9Jx0tFGjU2Y2NS-8" value="1" style="resizable=0;html=1;align=left;verticalAlign=top;labelBackgroundColor=#ffffff;fontSize=14;" connectable="0" vertex="1" parent="Ph1uTD9Jx0tFGjU2Y2NS-7">
          <mxGeometry x="-1" relative="1" as="geometry">
            <mxPoint x="-10" y="-25" as="offset" />
          </mxGeometry>
        </mxCell>
        <mxCell id="Ph1uTD9Jx0tFGjU2Y2NS-9" value="1" style="resizable=0;html=1;align=right;verticalAlign=top;labelBackgroundColor=#ffffff;fontSize=14;" connectable="0" vertex="1" parent="Ph1uTD9Jx0tFGjU2Y2NS-7">
          <mxGeometry x="1" relative="1" as="geometry">
            <mxPoint x="10" y="-25" as="offset" />
          </mxGeometry>
        </mxCell>
        <mxCell id="Ph1uTD9Jx0tFGjU2Y2NS-10" value="" style="endArrow=none;html=1;endSize=12;startArrow=none;startSize=14;startFill=0;edgeStyle=orthogonalEdgeStyle;exitX=1;exitY=0.5;exitDx=0;exitDy=0;endFill=0;fontSize=14;" edge="1" parent="1" source="Ph1uTD9Jx0tFGjU2Y2NS-2" target="Ph1uTD9Jx0tFGjU2Y2NS-6">
          <mxGeometry x="-0.0029" y="-20" relative="1" as="geometry">
            <mxPoint x="220" y="-480" as="sourcePoint" />
            <mxPoint x="220" y="-360" as="targetPoint" />
            <Array as="points" />
            <mxPoint as="offset" />
          </mxGeometry>
        </mxCell>
        <mxCell id="Ph1uTD9Jx0tFGjU2Y2NS-11" value="1" style="resizable=0;html=1;align=left;verticalAlign=top;labelBackgroundColor=#ffffff;fontSize=14;" connectable="0" vertex="1" parent="Ph1uTD9Jx0tFGjU2Y2NS-10">
          <mxGeometry x="-1" relative="1" as="geometry">
            <mxPoint as="offset" />
          </mxGeometry>
        </mxCell>
        <mxCell id="Ph1uTD9Jx0tFGjU2Y2NS-12" value="1" style="resizable=0;html=1;align=right;verticalAlign=top;labelBackgroundColor=#ffffff;fontSize=14;" connectable="0" vertex="1" parent="Ph1uTD9Jx0tFGjU2Y2NS-10">
          <mxGeometry x="1" relative="1" as="geometry">
            <mxPoint x="-10" y="-30" as="offset" />
          </mxGeometry>
        </mxCell>
      </root>
    </mxGraphModel>
  </diagram>
</mxfile>
